<svg width="17" height="17" viewBox="0 0 17 17" fill="none" xmlns="http://www.w3.org/2000/svg">
<path d="M14.4723 6.16509L10.5021 5.58853L8.72725 1.99322C8.67877 1.89478 8.59902 1.81509 8.50051 1.76666C8.25345 1.64478 7.95322 1.74634 7.82968 1.99322L6.05488 5.58853L2.08464 6.16509C1.97518 6.18072 1.87511 6.23228 1.79848 6.31041C1.70585 6.40554 1.65481 6.53353 1.65657 6.66625C1.65833 6.79897 1.71275 6.92557 1.80787 7.01822L4.68039 9.81666L4.00174 13.7682C3.98583 13.8601 3.99601 13.9547 4.03113 14.0411C4.06625 14.1276 4.1249 14.2024 4.20044 14.2572C4.27598 14.3121 4.36537 14.3446 4.4585 14.3513C4.55162 14.3579 4.64474 14.3383 4.7273 14.2948L8.27847 12.4292L11.8296 14.2948C11.9266 14.3463 12.0392 14.3635 12.1471 14.3448C12.4191 14.2979 12.6021 14.0401 12.5552 13.7682L11.8765 9.81666L14.7491 7.01822C14.8272 6.94166 14.8789 6.84166 14.8945 6.73228C14.9367 6.45884 14.7459 6.20572 14.4723 6.16509Z" fill="#FEA250"/>
</svg>
